<?xml version="1.0" standalone="no"?>
<!DOCTYPE svg PUBLIC "-//W3C//DTD SVG 20010904//EN"
 "http://www.w3.org/TR/2001/REC-SVG-20010904/DTD/svg10.dtd">
<svg version="1.0" xmlns="http://www.w3.org/2000/svg"
 width="409.000000pt" height="409.000000pt" viewBox="0 0 409.000000 409.000000"
 preserveAspectRatio="xMidYMid meet">
<metadata>
Created by potrace 1.14, written by Peter Selinger 2001-2017
</metadata>
<g transform="translate(0.000000,409.000000) scale(0.100000,-0.100000)"
fill="#000000" stroke="none">
<path d="M1950 3885 c-14 -7 -43 -37 -65 -65 -22 -28 -52 -65 -67 -82 -27 -31
-35 -63 -20 -83 4 -6 28 -28 54 -48 l46 -38 -4 -72 c-2 -40 -5 -119 -7 -177
-2 -124 -12 -141 -86 -146 -25 -2 -84 -6 -131 -10 -148 -13 -142 -14 -159 31
-8 22 -15 41 -15 42 -1 1 -13 4 -26 6 -14 3 -37 10 -52 16 -16 6 -28 7 -28 4
0 -4 -5 -2 -11 4 -20 20 -43 5 -116 -81 -20 -25 -21 -28 -7 -87 14 -59 46
-105 64 -94 5 3 21 0 37 -6 15 -7 44 -15 63 -18 39 -7 45 -23 23 -59 -8 -13
-12 -30 -9 -38 3 -8 0 -16 -7 -18 -18 -6 -150 -36 -178 -41 -49 -9 -114 -28
-126 -38 -13 -9 -12 -44 2 -124 l8 -43 -48 15 c-27 8 -100 33 -162 56 -64 23
-118 38 -122 33 -5 -5 -20 -49 -36 -99 -15 -49 -45 -139 -66 -200 -130 -369
-138 -396 -120 -406 18 -11 280 -102 356 -124 52 -15 55 -15 59 7 2 7 6 20 9
28 19 48 45 130 40 130 -3 0 0 7 7 15 7 8 9 15 4 15 -5 0 -4 4 1 8 6 4 16 26
23 49 7 22 20 58 29 80 9 21 18 43 19 50 3 14 23 82 31 103 4 8 5 18 5 23 -1
4 2 7 7 7 5 0 11 10 13 21 2 17 17 25 78 41 41 11 84 21 95 23 11 2 39 9 63
15 46 11 66 6 58 -15 -2 -7 -2 -16 2 -20 4 -4 7 -154 8 -333 1 -180 2 -337 3
-350 1 -29 29 -39 132 -47 86 -6 137 -11 224 -19 28 -3 84 -8 125 -11 165 -14
186 -16 220 -21 19 -2 71 -6 115 -8 67 -2 199 -15 228 -22 4 -1 18 -2 32 -3
14 0 25 -7 25 -15 0 -15 -27 -29 -39 -21 -4 2 -46 7 -92 10 -46 4 -102 8 -124
10 -22 1 -85 6 -139 10 l-99 8 7 -29 c4 -16 8 -30 9 -31 2 -1 78 -7 232 -19
154 -11 296 -22 365 -29 50 -5 226 -18 249 -19 28 0 77 -45 141 -130 67 -88
70 -94 70 -183 l0 -83 -92 -1 c-51 -1 -96 -1 -101 0 -4 1 -301 1 -660 1 -358
-1 -710 -1 -781 -1 -122 1 -164 -7 -151 -29 3 -5 1 -11 -5 -15 -5 -3 -10 -17
-10 -31 0 -13 -3 -24 -7 -25 -102 -10 -171 -92 -157 -185 9 -61 60 -119 116
-135 22 -5 46 -8 54 -5 7 3 16 1 18 -3 9 -15 80 -1 121 24 47 27 85 88 85 136
0 19 -6 54 -13 79 -15 54 -15 68 1 96 l11 22 706 -1 c715 0 752 -2 731 -36 -4
-6 -11 -9 -16 -6 -11 7 -76 -19 -93 -37 -21 -23 -45 -64 -48 -84 -11 -80 45
-159 121 -169 22 -3 59 -8 83 -11 79 -12 109 -2 162 50 44 44 56 131 24 184
-13 22 -18 46 -15 70 2 20 -1 43 -7 50 -6 8 -12 59 -13 115 -5 175 -7 181
-118 305 -35 38 -40 61 -24 99 12 31 17 49 21 78 1 11 5 22 9 25 4 3 9 17 11
30 3 14 12 46 21 71 9 25 17 54 19 65 2 10 7 27 11 36 4 9 9 22 10 30 4 22 57
192 67 213 6 12 11 27 13 35 2 8 5 22 8 30 44 118 61 168 62 180 1 9 5 20 9
26 3 6 18 44 33 85 14 41 30 78 35 84 5 5 9 18 9 30 0 11 7 31 16 43 8 12 13
22 9 22 -8 0 22 55 41 74 10 10 25 14 42 11 15 -3 58 -6 97 -6 81 0 100 14 84
60 -5 15 -15 28 -22 29 -7 1 -54 3 -106 5 -78 3 -100 1 -134 -16 -47 -22 -85
-58 -112 -104 -11 -18 -23 -33 -27 -33 -4 0 -8 -7 -8 -15 0 -8 -9 -19 -19 -24
-17 -10 -19 -6 -23 29 -2 27 1 40 8 40 7 0 18 17 25 38 6 20 31 86 55 145 24
59 44 114 44 121 0 7 -21 21 -47 31 -27 10 -67 26 -91 36 l-43 19 32 40 32 40
-18 60 c-10 33 -24 65 -30 70 -7 6 -40 13 -74 16 -55 6 -64 5 -81 -14 -11 -12
-20 -24 -20 -27 0 -3 -9 -15 -20 -27 -11 -12 -20 -31 -20 -42 0 -17 10 -10 48
32 38 43 52 52 72 48 14 -2 35 -5 47 -5 24 -1 48 -38 57 -83 3 -19 -5 -35 -30
-62 -19 -20 -39 -34 -44 -31 -13 8 -14 6 15 45 50 68 21 83 -35 18 -21 -23
-42 -38 -48 -34 -15 9 -5 31 29 69 34 37 36 47 11 47 -18 0 -81 -60 -65 -60 5
-1 -3 -7 -16 -14 -26 -14 -36 -13 -86 9 -29 14 -86 28 -94 25 -2 -1 -7 4 -11
11 -7 11 -6 61 4 156 2 18 -2 37 -8 42 -7 6 -41 11 -76 13 -63 3 -65 4 -62 28
6 55 1 125 -9 131 -6 3 -43 7 -82 9 -40 1 -92 4 -117 6 -41 3 -249 14 -327 17
-30 2 -31 3 -19 27 7 14 11 32 9 41 -4 15 -133 129 -185 163 -20 12 -27 13
-48 1z m212 -277 c-9 -3 -24 -7 -32 -7 -13 -1 -13 0 0 9 8 5 11 10 7 10 -5 0
-5 4 -2 10 4 6 13 5 25 -3 19 -11 19 -12 2 -19z m656 -177 c31 -1 33 -3 30
-33 l-3 -33 -60 0 c-57 0 -60 1 -62 25 -3 40 4 49 34 45 15 -2 43 -4 61 -4z
m110 -231 c22 -11 48 -20 56 -20 8 0 18 -4 21 -10 3 -5 15 -10 26 -10 21 0 27
-29 7 -31 -7 -1 -20 -2 -28 -3 -8 -1 -26 4 -40 10 -14 6 -34 10 -45 8 -44 -7
-65 6 -65 42 0 40 10 42 68 14z m-1086 -62 c-5 -5 -18 -11 -28 -13 -11 -2 -19
-4 -19 -5 0 -6 -51 -11 -110 -12 -38 0 -79 -5 -90 -11 -32 -18 -55 -18 -55 -2
0 8 0 18 0 23 0 4 8 8 17 9 10 1 47 5 83 8 35 3 66 7 67 8 1 2 34 3 73 4 46 0
68 -3 62 -9z m1517 -107 c14 -9 9 -41 -8 -41 -5 0 -16 11 -25 25 -15 23 -15
25 1 25 10 0 24 -4 32 -9z m151 -226 c0 -8 -9 -19 -20 -25 -11 -6 -18 -15 -15
-21 4 -5 0 -9 -7 -9 -7 -1 -22 -20 -33 -43 -18 -37 -24 -42 -58 -45 -37 -3
-37 -3 -25 22 6 14 15 26 20 26 4 0 8 5 8 11 0 15 48 71 74 86 29 17 56 16 56
-2z m-109 -175 c-2 -8 -4 -21 -4 -27 0 -7 -4 -13 -9 -13 -4 0 -8 -5 -8 -11 0
-25 -46 -129 -57 -129 -8 0 -7 15 4 53 23 85 26 133 3 62 -11 -33 -22 -71 -25
-85 -3 -14 -9 -40 -14 -58 -9 -30 -8 -33 7 -28 10 4 6 -2 -8 -13 -13 -11 -37
-21 -53 -24 -25 -3 -28 -1 -22 17 3 12 8 32 11 46 2 14 7 32 10 40 4 11 2 12
-6 4 -6 -6 -12 -21 -15 -33 -8 -43 -18 -66 -34 -78 -10 -8 -11 -12 -4 -13 9 0
10 -7 3 -26 -14 -37 -12 -52 5 -30 8 11 15 16 15 12 0 -4 5 -4 12 0 8 5 7 9
-5 13 -24 9 -6 30 31 37 32 7 33 6 21 -19 -7 -15 -17 -23 -23 -20 -7 4 -6 1 1
-8 9 -12 7 -32 -13 -99 -14 -47 -27 -94 -29 -106 -2 -11 -7 -29 -13 -40 -5
-10 -17 -45 -26 -76 -17 -58 -29 -71 -40 -43 -3 8 0 15 7 15 7 0 8 3 2 8 -13
9 -18 32 -7 32 5 0 8 19 7 43 0 23 4 65 11 94 6 29 9 55 6 58 -3 3 0 5 7 5 7
0 10 4 6 9 -3 5 0 13 6 17 8 4 7 9 -2 15 -10 6 -11 9 -1 9 6 0 12 5 12 11 0 5
-4 8 -8 5 -13 -8 -12 38 1 46 9 6 9 10 0 16 -16 10 -10 68 10 90 9 10 14 22
10 25 -3 4 -1 7 5 7 6 0 14 9 17 20 3 11 13 20 21 20 8 0 14 3 15 8 3 27 10
45 29 72 12 16 19 30 16 30 -3 0 6 12 19 26 15 16 31 24 40 20 8 -3 15 -2 15
3 0 5 10 8 23 7 14 -1 21 -7 18 -16z m-77 -205 c-4 -8 -10 -12 -15 -9 -14 8
-10 24 6 24 9 0 12 -6 9 -15z m-667 -792 c5 -14 -28 -26 -40 -14 -5 5 -6 14
-3 19 8 13 39 9 43 -5z m318 -5 c27 -2 40 -8 40 -18 0 -17 -27 -18 -175 -6
-176 15 -163 13 -155 26 6 9 173 8 290 -2z m92 -28 c-1 -11 -7 -22 -14 -24
-14 -6 -16 4 -7 28 9 23 23 20 21 -4z"/>
<path d="M1192 3720 c-85 -54 -92 -74 -48 -128 25 -29 32 -39 42 -57 6 -11 19
-21 28 -23 18 -4 143 75 150 95 3 6 -4 23 -15 36 -10 14 -19 30 -19 36 0 6 -4
11 -8 11 -5 0 -15 12 -22 26 -25 46 -42 47 -108 4z"/>
<path d="M860 3383 c-45 -14 -249 -111 -265 -126 -24 -25 -19 -51 34 -162 29
-60 56 -119 61 -130 4 -11 19 -27 33 -34 22 -12 31 -12 60 3 19 9 40 16 46 16
6 0 11 5 11 12 0 6 3 9 6 6 3 -4 32 7 64 23 32 16 62 29 65 29 4 0 19 9 35 20
37 26 36 56 -6 149 -80 177 -102 206 -144 194z"/>
<path d="M3590 2590 c0 -7 8 -19 18 -26 11 -9 13 -13 4 -14 -7 0 -10 -5 -7
-11 4 -6 1 -9 -6 -8 -19 3 -70 -22 -64 -31 3 -5 -2 -11 -11 -14 -8 -3 -12 -10
-9 -16 3 -5 1 -10 -5 -10 -25 0 5 -126 33 -138 4 -2 7 -9 7 -16 0 -7 8 -21 18
-32 9 -11 25 -35 36 -54 10 -19 24 -40 31 -45 7 -6 15 -20 19 -32 4 -12 25
-40 46 -62 53 -55 86 -55 170 0 79 51 88 60 94 95 6 29 -12 84 -26 84 -5 0 -8
6 -8 13 0 7 -9 23 -20 35 -11 12 -20 24 -20 27 0 11 -103 170 -119 183 -8 6
-11 12 -5 12 17 0 -55 39 -81 44 -13 3 -27 0 -30 -5 -10 -14 -23 -11 -45 13
-12 13 -20 17 -20 8z"/>
</g>
</svg>
